<?xml version="1.0" encoding="UTF-8"?>
<svg width="80" height="80" viewBox="0 0 80 80" fill="none" xmlns="http://www.w3.org/2000/svg">
    <circle cx="40" cy="40" r="36" fill="#4A90E2" opacity="0.1"/>
    <path d="M40 16C26.7 16 16 26.7 16 40C16 53.3 26.7 64 40 64C53.3 64 64 53.3 64 40C64 26.7 53.3 16 40 16ZM44 56H36V48H44V56ZM48.8 34.5L46.1 37.3C44.3 39.2 44 40 44 44H36V42C36 39.2 36.3 36.7 38.1 34.8L41.7 31.1C42.6 30.3 43 29.2 43 28C43 25.2 40.8 23 38 23C35.2 23 33 25.2 33 28H25C25 20.8 30.8 15 38 15C45.2 15 51 20.8 51 28C51 30.4 50.2 32.7 48.8 34.5Z" fill="#4A90E2"/>
</svg> 