<?xml version="1.0" encoding="UTF-8"?>
<svg width="80" height="80" viewBox="0 0 80 80" fill="none" xmlns="http://www.w3.org/2000/svg">
    <circle cx="40" cy="40" r="36" fill="#4A90E2" opacity="0.1"/>
    <path d="M40 16C26.745 16 16 26.745 16 40C16 53.255 26.745 64 40 64C53.255 64 64 53.255 64 40C64 26.745 53.255 16 40 16ZM24 42H32.343C32.447 45.423 33.14 48.665 34.337 51.504C30.863 49.938 28.037 46.37 27.18 42H24V42ZM56 42H52.82C51.963 46.37 49.137 49.938 45.663 51.504C46.86 48.665 47.553 45.423 47.657 42H56V42ZM45.663 28.496C49.137 30.062 51.963 33.63 52.82 38H56V38H47.657C47.553 34.577 46.86 31.335 45.663 28.496ZM40 24C41.89 24 44.523 27.947 45.397 36H34.603C35.477 27.947 38.11 24 40 24ZM34.337 28.496C33.14 31.335 32.447 34.577 32.343 38H24V38H27.18C28.037 33.63 30.863 30.062 34.337 28.496ZM34.603 44H45.397C44.523 52.053 41.89 56 40 56C38.11 56 35.477 52.053 34.603 44Z" fill="#4A90E2"/>
</svg> 